<?xml version="1.0" encoding="utf-8"?>
<!-- Svg Vector Icons : http://www.onlinewebfonts.com/icon -->
<!DOCTYPE svg PUBLIC "-//W3C//DTD SVG 1.1//EN" "http://www.w3.org/Graphics/SVG/1.1/DTD/svg11.dtd">
<svg version="1.1" xmlns="http://www.w3.org/2000/svg" xmlns:xlink="http://www.w3.org/1999/xlink" x="0px" y="0px" viewBox="0 0 1000 1000" enable-background="new 0 0 1000 1000" xml:space="preserve">
<metadata> Svg Vector Icons : http://www.onlinewebfonts.com/icon </metadata>
<g><g transform="translate(0.000000,511.000000) scale(0.100000,-0.100000)"><path d="M3923,4125.7c-1670.5-280.1-3101-527.7-3176-550.2c-300.1-95-482.7-235.1-577.7-445.1l-60-130l-7.5-3151c-5-2263.2,0-3193.6,20-3301.1c87.5-455.2,465.2-840.3,920.3-935.3c190.1-40,6977.3-37.5,7162.3,0c427.6,92.5,767.8,400.1,895.3,817.8c45,140,50,232.6,50,745.2v585.2h-172.6h-172.5l-10-592.7c-7.5-582.7-10-597.7-75-737.7c-120-255.1-345.1-422.6-635.2-470.2c-197.6-32.5-6724.7-32.5-6919.8,0c-202.6,32.5-352.6,115-492.7,267.6c-230.1,250.1-212.6-10-220.1,3203.5l-5,2830.9l3868.8-5l3871.3-7.5l142.6-70c200.1-97.5,355.1-277.6,420.1-485.2c42.5-142.5,50-232.6,50-697.7V462h175h175.1v570.2c0,765.2-40,915.3-335.1,1225.4c-147.5,157.6-285.1,242.6-485.1,305.1c-177.6,55-172.6,40-177.6,650.2c-2.5,505.2-25,702.7-105,917.8c-127.6,340.1-442.6,512.7-920.3,505.2C7036.6,4633.4,5593.6,4403.3,3923,4125.7z M7551.7,4185.7c80-45,127.6-92.5,172.6-185.1c60-120,62.5-142.5,72.5-730.2l7.5-607.7H4123.1H439.4l17.5,142.6c22.5,197.6,80,282.6,247.6,367.6c130,67.5,412.6,117.5,3163.5,580.2c2873.4,485.2,3031,507.7,3296.1,500.2C7401.7,4245.8,7459.2,4235.8,7551.7,4185.7z"/><path d="M6626.4,274.5c-132.5-42.5-267.6-165.1-330.1-300.1c-42.5-90-47.5-172.6-47.5-870.3c0-857.8,2.5-865.3,177.5-1037.8c157.6-155.1,190.1-157.6,1700.6-150.1c1350.4,7.5,1360.4,7.5,1465.5,62.5c127.5,67.5,240.1,205.1,280.1,330.1c17.5,62.5,27.5,347.6,27.5,817.8c0,672.7-5,730.2-52.5,835.3c-62.5,140-132.6,215.1-260.1,282.6c-97.5,55-120,55-1475.5,60C6999.1,309.5,6716.5,302,6626.4,274.5z M9444.8-138.2c55-50,55-65,55-750.2c0-685.2,0-700.2-55-750.2c-52.5-50-80-50-1370.4-50c-1147.9,0-1320.4,5-1370.4,40c-55,37.5-55,42.5-55,760.3c0,717.7,0,722.7,55,760.2c50,35,222.6,40,1370.4,40C9364.8-88.1,9392.3-88.1,9444.8-138.2z"/><path d="M7591.8-325.7c-432.6-165.1-565.2-737.7-242.6-1057.8c180.1-180.1,415.1-240.1,660.2-170.1c257.6,75,465.1,350.1,465.1,615.2c0,217.6-162.6,480.2-360.1,580.2C7984.4-290.7,7724.3-275.7,7591.8-325.7z M7934.4-673.3c110-45,165-130,165-247.6c0-287.6-317.6-412.6-510.2-197.6c-25,30-52.5,102.5-57.5,162.5c-10,90-2.5,120,57.5,190C7696.8-638.3,7789.3-613.3,7934.4-673.3z"/></g></g>
</svg>